<?xml version="1.0" encoding="utf-8"?>
<!-- Generator: Adobe Illustrator 15.0.2, SVG Export Plug-In . SVG Version: 6.00 Build 0)  -->
<!DOCTYPE svg PUBLIC "-//W3C//DTD SVG 1.1//EN" "http://www.w3.org/Graphics/SVG/1.1/DTD/svg11.dtd">
<svg version="1.1" id="Layer_1" xmlns="http://www.w3.org/2000/svg" xmlns:xlink="http://www.w3.org/1999/xlink" x="0px" y="0px"
	 width="120.053px" height="129.352px" viewBox="0 0 120.053 129.352" enable-background="new 0 0 120.053 129.352"
	 xml:space="preserve">
<path display="none" fill="#161616" stroke="#161616" stroke-miterlimit="10" d="M138.658-111.583c0,0-0.756-11.593-18.745-11.593
	c-16.212,0-25.648,44.429-39.315,94.227H59.949v2.755h19.89c-0.712,2.573-1.438,5.16-2.175,7.752h19.242
	c0.738-2.705,1.431-5.29,2.077-7.752h20.073v-2.755H99.701c10.897-42.114,8.875-49.214,21.411-85.433c0,0,1.198-3.598,3.053-4.09
	c1.731-0.459,4.412,0.281,5.343,2.092c3.126,6.087-7.996,2.799-6.798,13.99c0.652,6.068,8.797,6.396,13.193,2.001
	C140.701-105.187,138.658-111.583,138.658-111.583z"/>
<path fill="#161616" stroke="#161616" stroke-miterlimit="10" d="M100.149,0.5c-0.543,1.909-1.089,3.819-1.646,5.733
	c-9.262,31.763-30.922,98.124-49.97,111.131c-16.39,11.194-27.452,9.014-31.181,5.599c-4.797-4.398-7.118-16.471-11.992-13.993
	c-8.127,4.13-4.898,11.593,1.199,15.19c4.03,2.379,17.988,8.794,42.373,0.801c25.043-8.211,44.931-34.478,67.561-114.046
	c1.045-3.674,2.008-7.135,2.904-10.415H100.149z"/>
</svg>
